<svg aria-hidden="true" style="position:absolute;width:0;height:0" width="24" height="24" xmlns="http://www.w3.org/2000/svg" overflow="hidden">
<defs>
<symbol id="linkedin" viewBox="0 0 24 24">
<path d="M19 3a2 2 0 0 1 2 2v14a2 2 0 0 1-2 2H5a2 2 0 0 1-2-2V5a2 2 0 0 1 2-2h14Zm-.5 15.5v-5.3a3.26 3.26 0 0 0-3.26-3.26c-.85 0-1.84.52-2.32 1.3v-1.11h-2.79v8.37h2.79v-4.93c0-.77.62-1.4 1.39-1.4a1.4 1.4 0 0 1 1.4 1.4v4.93h2.79ZM6.88 8.56a1.68 1.68 0 0 0 1.68-1.68c0-.93-.75-1.69-1.68-1.69a1.69 1.69 0 0 0-1.69 1.69c0 .93.76 1.68 1.69 1.68Zm1.39 9.94v-8.37H5.5v8.37h2.77Z"/>
</symbol>
<symbol id="github" viewBox="0 0 24 24">
<path d="M12 2A10 10 0 0 0 2 12c0 4.42 2.87 8.17 6.84 9.5.5.08.66-.23.66-.5v-1.69c-2.77.6-3.36-1.34-3.36-1.34-.46-1.16-1.11-1.47-1.11-1.47-.91-.62.07-.6.07-.6 1 .07 1.53 1.03 1.53 1.03.87 1.52 2.34 1.07 2.91.83.09-.65.35-1.09.63-1.34-2.22-.25-4.55-1.11-4.55-4.92 0-1.11.38-2 1.03-2.71-.1-.25-.45-1.29.1-2.64 0 0 .84-.27 2.75 1.02.79-.22 1.65-.33 2.5-.33.85 0 1.71.11 2.5.33 1.91-1.29 2.75-1.02 2.75-1.02.55 1.35.2 2.39.1 2.64.65.71 1.03 1.6 1.03 2.71 0 3.82-2.34 4.66-4.57 4.91.36.31.69.92.69 1.85V21c0 .27.16.59.67.5C19.14 20.16 22 16.42 22 12A10 10 0 0 0 12 2Z"/>
</symbol>
<symbol id="behance" viewBox="0 0 24 24">
<path d="M16.13 10.95c-1.355 0-1.542 1.35-1.542 1.35h2.878s.018-1.35-1.336-1.35ZM9.6 12.3H7.05v2.344h2.423c.366-.01 1.05-.113 1.05-1.14 0-1.218-.923-1.204-.923-1.204Z"/>
<path d="M12 1.5C6.202 1.5 1.5 6.202 1.5 12S6.202 22.5 12 22.5 22.5 17.798 22.5 12 17.798 1.5 12 1.5Zm2.213 6.45h3.614v1.078h-3.615V7.95Zm-1.829 5.663c0 2.671-2.784 2.587-2.784 2.587H5.044V7.434H9.6c1.388 0 2.48.764 2.48 2.335 0 1.57-1.336 1.668-1.336 1.668 1.762 0 1.64 2.176 1.64 2.176Zm6.76-.146h-4.542c0 1.627 1.542 1.524 1.542 1.524 1.458 0 1.406-.943 1.406-.943h1.542c0 2.504-3 2.33-3 2.33-3.595 0-3.365-3.351-3.365-3.351s-.005-3.366 3.365-3.366c3.549.005 3.052 3.806 3.052 3.806Z"/>
<path d="M10.219 9.905c0-.91-.619-.91-.619-.91H7.05v1.955h2.39c.413 0 .779-.136.779-1.045Z"/>
</symbol>
</defs>
</svg>